<svg width="20" height="20" viewBox="0 0 20 20" fill="none" xmlns="http://www.w3.org/2000/svg">
<g clip-path="url(#clip0)">
<path d="M9.61826 16.6666H1.99954C1.26317 16.6666 0.66626 16.0697 0.66626 15.3334V14H10.899L9.61826 16.6666Z" fill="#D3DCFB"/>
<path d="M18.0009 6.00011V11.6016V15.3334H1.99954C1.26317 15.3334 0.66626 14.7364 0.66626 14.0001V6.00011L10.0002 2.66675L18.0009 6.00011Z" fill="#EBF5FC"/>
<path d="M3.02082 8.66657H2.3125C2.13992 8.66657 2 8.52665 2 8.35407V7.64575C2 7.47317 2.13992 7.33325 2.3125 7.33325H3.02082C3.1934 7.33325 3.33332 7.47317 3.33332 7.64575V8.35407C3.33332 8.52665 3.1934 8.66657 3.02082 8.66657Z" fill="#3C58A0"/>
<path d="M5.68757 8.66657H4.97925C4.80667 8.66657 4.66675 8.52665 4.66675 8.35407V7.64575C4.66675 7.47317 4.80667 7.33325 4.97925 7.33325H5.68757C5.86015 7.33325 6.00007 7.47317 6.00007 7.64575V8.35407C6.00007 8.52665 5.86015 8.66657 5.68757 8.66657Z" fill="#3C58A0"/>
<path d="M8.35407 8.66657H7.64575C7.47317 8.66657 7.33325 8.52665 7.33325 8.35407V7.64575C7.33325 7.47317 7.47317 7.33325 7.64575 7.33325H8.35407C8.52665 7.33325 8.66657 7.47317 8.66657 7.64575V8.35407C8.66657 8.52665 8.52669 8.66657 8.35407 8.66657Z" fill="#3C58A0"/>
<path d="M11.0208 8.66657H10.3125C10.1399 8.66657 10 8.52665 10 8.35407V7.64575C10 7.47317 10.1399 7.33325 10.3125 7.33325H11.0208C11.1934 7.33325 11.3333 7.47317 11.3333 7.64575V8.35407C11.3333 8.52665 11.1934 8.66657 11.0208 8.66657Z" fill="#3C58A0"/>
<path d="M13.6871 8.66657H12.9788C12.8062 8.66657 12.6663 8.52665 12.6663 8.35407V7.64575C12.6663 7.47317 12.8062 7.33325 12.9788 7.33325H13.6871C13.8597 7.33325 13.9996 7.47317 13.9996 7.64575V8.35407C13.9996 8.52665 13.8597 8.66657 13.6871 8.66657Z" fill="#3C58A0"/>
<path d="M16.3536 8.66657H15.6453C15.4727 8.66657 15.3328 8.52665 15.3328 8.35407V7.64575C15.3328 7.47317 15.4727 7.33325 15.6453 7.33325H16.3536C16.5262 7.33325 16.6661 7.47317 16.6661 7.64575V8.35407C16.6661 8.52665 16.5262 8.66657 16.3536 8.66657Z" fill="#3C58A0"/>
<path d="M3.02082 11.3333H2.3125C2.13992 11.3333 2 11.1934 2 11.0208V10.3125C2 10.1399 2.13992 10 2.3125 10H3.02082C3.1934 10 3.33332 10.1399 3.33332 10.3125V11.0208C3.33332 11.1934 3.1934 11.3333 3.02082 11.3333Z" fill="#3C58A0"/>
<path d="M5.68757 11.3333H4.97925C4.80667 11.3333 4.66675 11.1934 4.66675 11.0208V10.3125C4.66675 10.1399 4.80667 10 4.97925 10H5.68757C5.86015 10 6.00007 10.1399 6.00007 10.3125V11.0208C6.00007 11.1934 5.86015 11.3333 5.68757 11.3333Z" fill="#3C58A0"/>
<path d="M8.35407 11.3333H7.64575C7.47317 11.3333 7.33325 11.1934 7.33325 11.0208V10.3125C7.33325 10.1399 7.47317 10 7.64575 10H8.35407C8.52665 10 8.66657 10.1399 8.66657 10.3125V11.0208C8.66657 11.1934 8.52669 11.3333 8.35407 11.3333Z" fill="#3C58A0"/>
<path d="M11.3333 11.3333V10.3333C11.3333 10.1492 11.1841 10 11 10H10.3333C10.1492 10 10 10.1492 10 10.3333V11C10 11.1841 10.1493 11.3333 10.3333 11.3333H11.3333Z" fill="#3C58A0"/>
<path d="M3.02082 13.9998H2.3125C2.13992 13.9998 2 13.8599 2 13.6873V12.979C2 12.8064 2.13992 12.6665 2.3125 12.6665H3.02082C3.1934 12.6665 3.33332 12.8064 3.33332 12.979V13.6873C3.33332 13.8599 3.1934 13.9998 3.02082 13.9998Z" fill="#3C58A0"/>
<path d="M5.68757 13.9998H4.97925C4.80667 13.9998 4.66675 13.8599 4.66675 13.6873V12.979C4.66675 12.8064 4.80667 12.6665 4.97925 12.6665H5.68757C5.86015 12.6665 6.00007 12.8064 6.00007 12.979V13.6873C6.00007 13.8599 5.86015 13.9998 5.68757 13.9998Z" fill="#3C58A0"/>
<path d="M8.35407 13.9998H7.64575C7.47317 13.9998 7.33325 13.8599 7.33325 13.6873V12.979C7.33325 12.8064 7.47317 12.6665 7.64575 12.6665H8.35407C8.52665 12.6665 8.66657 12.8064 8.66657 12.979V13.6873C8.66657 13.8599 8.52669 13.9998 8.35407 13.9998Z" fill="#3C58A0"/>
<path d="M16.3444 7.3335H15.6549C15.6132 7.3335 15.5735 7.3417 15.5369 7.35611C15.6562 7.40322 15.7407 7.51932 15.7407 7.65541V8.34486C15.7407 8.48096 15.6562 8.59705 15.5369 8.64416C15.5735 8.65861 15.6132 8.66682 15.6549 8.66682H16.3444C16.5222 8.66682 16.6663 8.52268 16.6663 8.3449V7.65545C16.6663 7.47764 16.5221 7.3335 16.3444 7.3335Z" fill="#2A428C"/>
<path d="M13.6776 7.3335H12.9882C12.9464 7.3335 12.9067 7.3417 12.8701 7.35611C12.9895 7.40322 13.074 7.51932 13.074 7.65541V8.34486C13.074 8.48096 12.9894 8.59705 12.8701 8.64416C12.9067 8.65861 12.9464 8.66682 12.9882 8.66682H13.6776C13.8554 8.66682 13.9995 8.52268 13.9995 8.3449V7.65545C13.9995 7.47764 13.8554 7.3335 13.6776 7.3335Z" fill="#2A428C"/>
<path d="M11.0114 7.3335H10.3219C10.2802 7.3335 10.2405 7.3417 10.2039 7.35611C10.3232 7.40322 10.4078 7.51932 10.4078 7.65541V8.34486C10.4078 8.48096 10.3232 8.59705 10.2039 8.64416C10.2405 8.65861 10.2802 8.66682 10.3219 8.66682H11.0114C11.1892 8.66682 11.3333 8.52268 11.3333 8.3449V7.65545C11.3333 7.47764 11.1891 7.3335 11.0114 7.3335Z" fill="#2A428C"/>
<path d="M8.34485 7.3335H7.6554C7.61368 7.3335 7.57396 7.3417 7.53735 7.35611C7.65669 7.40322 7.74126 7.51932 7.74126 7.65541V8.34486C7.74126 8.48096 7.65669 8.59705 7.53735 8.64416C7.57396 8.65861 7.61368 8.66682 7.6554 8.66682H8.34485C8.52267 8.66682 8.66681 8.52268 8.66681 8.3449V7.65545C8.66677 7.47764 8.52267 7.3335 8.34485 7.3335Z" fill="#2A428C"/>
<path d="M5.6781 7.3335H4.98865C4.94693 7.3335 4.90721 7.3417 4.87061 7.35611C4.98994 7.40322 5.07447 7.51932 5.07447 7.65541V8.34486C5.07447 8.48096 4.9899 8.59705 4.87061 8.64416C4.90721 8.65861 4.94693 8.66682 4.98865 8.66682H5.6781C5.85592 8.66682 6.00006 8.52268 6.00006 8.3449V7.65545C6.00006 7.47764 5.85592 7.3335 5.6781 7.3335Z" fill="#2A428C"/>
<path d="M3.0116 7.3335H2.32215C2.28043 7.3335 2.2407 7.3417 2.2041 7.35611C2.32344 7.40322 2.40801 7.51932 2.40801 7.65541V8.34486C2.40801 8.48096 2.32344 8.59705 2.2041 8.64416C2.2407 8.65861 2.28043 8.66682 2.32215 8.66682H3.0116C3.18941 8.66682 3.33355 8.52268 3.33355 8.3449V7.65545C3.33352 7.47764 3.18937 7.3335 3.0116 7.3335Z" fill="#2A428C"/>
<path d="M3.0116 10H2.32215C2.28043 10 2.2407 10.0082 2.2041 10.0226C2.32344 10.0697 2.40801 10.1858 2.40801 10.3219V11.0114C2.40801 11.1475 2.32344 11.2636 2.2041 11.3107C2.2407 11.3252 2.28043 11.3334 2.32215 11.3334H3.0116C3.18941 11.3334 3.33355 11.1892 3.33355 11.0114V10.322C3.33352 10.1441 3.18937 10 3.0116 10Z" fill="#2A428C"/>
<path d="M3.0116 12.6665H2.32215C2.28043 12.6665 2.2407 12.6747 2.2041 12.6891C2.32344 12.7362 2.40801 12.8523 2.40801 12.9884V13.6779C2.40801 13.814 2.32344 13.9301 2.2041 13.9772C2.2407 13.9917 2.28043 13.9999 2.32215 13.9999H3.0116C3.18941 13.9999 3.33355 13.8557 3.33355 13.678V12.9885C3.33352 12.8106 3.18937 12.6665 3.0116 12.6665Z" fill="#2A428C"/>
<path d="M5.6781 10H4.98865C4.94693 10 4.90721 10.0082 4.87061 10.0226C4.98994 10.0697 5.07447 10.1858 5.07447 10.3219V11.0114C5.07447 11.1475 4.9899 11.2636 4.87061 11.3107C4.90721 11.3252 4.94693 11.3334 4.98865 11.3334H5.6781C5.85592 11.3334 6.00006 11.1892 6.00006 11.0114V10.322C6.00006 10.1441 5.85592 10 5.6781 10Z" fill="#2A428C"/>
<path d="M5.6781 12.6665H4.98865C4.94693 12.6665 4.90721 12.6747 4.87061 12.6891C4.98994 12.7362 5.07447 12.8523 5.07447 12.9884V13.6779C5.07447 13.814 4.9899 13.9301 4.87061 13.9772C4.90721 13.9917 4.94693 13.9999 4.98865 13.9999H5.6781C5.85592 13.9999 6.00006 13.8557 6.00006 13.678V12.9885C6.00006 12.8106 5.85592 12.6665 5.6781 12.6665Z" fill="#2A428C"/>
<path d="M8.34485 10H7.6554C7.61368 10 7.57396 10.0082 7.53735 10.0226C7.65669 10.0697 7.74126 10.1858 7.74126 10.3219V11.0114C7.74126 11.1475 7.65669 11.2636 7.53735 11.3107C7.57396 11.3252 7.61368 11.3334 7.6554 11.3334H8.34485C8.52267 11.3334 8.66681 11.1892 8.66681 11.0114V10.322C8.66677 10.1441 8.52267 10 8.34485 10Z" fill="#2A428C"/>
<path d="M11.3333 11.3333V10.3219C11.3333 10.1441 11.1892 10 11.0114 10H10.3219C10.2802 10 10.2405 10.0082 10.2039 10.0226C10.3232 10.0697 10.4078 10.1858 10.4078 10.3219V11.0114C10.4078 11.1475 10.3232 11.2636 10.2039 11.3107C10.2405 11.3252 10.2802 11.3334 10.3219 11.3334H11.3333V11.3333Z" fill="#2A428C"/>
<path d="M8.34485 12.6665H7.6554C7.61368 12.6665 7.57396 12.6747 7.53735 12.6891C7.65669 12.7362 7.74126 12.8523 7.74126 12.9884V13.6779C7.74126 13.814 7.65669 13.9301 7.53735 13.9772C7.57396 13.9917 7.61368 13.9999 7.6554 13.9999H8.34485C8.52267 13.9999 8.66681 13.8557 8.66681 13.678V12.9885C8.66677 12.8106 8.52267 12.6665 8.34485 12.6665Z" fill="#2A428C"/>
<path d="M17.0747 5.61426V11.6016V15.3335H18.0009V11.6016V6.00016L17.0747 5.61426Z" fill="#D3DCFB"/>
<path d="M18.0009 6.00014V2.66678C18.0009 1.93041 17.4039 1.3335 16.6676 1.3335H1.99954C1.26317 1.3335 0.66626 1.93041 0.66626 2.66678V6.00014H18.0009Z" fill="#FF4155"/>
<path d="M4.8674 2.96834H3.99955C3.83283 2.96834 3.69775 2.83322 3.69775 2.66654C3.69775 2.49986 3.83287 2.36475 3.99955 2.36475H4.8674C5.03412 2.36475 5.1692 2.49986 5.1692 2.66654C5.1692 2.83322 5.03408 2.96834 4.8674 2.96834Z" fill="#E80054"/>
<path d="M6.99948 2.96834H6.13163C5.96491 2.96834 5.82983 2.83322 5.82983 2.66654C5.82983 2.49986 5.96495 2.36475 6.13163 2.36475H6.99948C7.1662 2.36475 7.30128 2.49986 7.30128 2.66654C7.30128 2.83322 7.1662 2.96834 6.99948 2.96834Z" fill="#E80054"/>
<path d="M12.5344 2.96834H11.6665C11.4998 2.96834 11.3647 2.83322 11.3647 2.66654C11.3647 2.49986 11.4999 2.36475 11.6665 2.36475H12.5344C12.7012 2.36475 12.8362 2.49986 12.8362 2.66654C12.8362 2.83322 12.7012 2.96834 12.5344 2.96834Z" fill="#E80054"/>
<path d="M14.6668 2.96834H13.7989C13.6321 2.96834 13.4971 2.83322 13.4971 2.66654C13.4971 2.49986 13.6322 2.36475 13.7989 2.36475H14.6668C14.8335 2.36475 14.9686 2.49986 14.9686 2.66654C14.9686 2.83322 14.8334 2.96834 14.6668 2.96834Z" fill="#E80054"/>
<path d="M6.3329 2.5C6.3329 2.96023 5.95981 3.33332 5.49958 3.33332C5.03935 3.33332 4.66626 2.96023 4.66626 2.5V0.83332C4.66622 0.373086 5.03931 0 5.49954 0C5.95977 0 6.33286 0.373086 6.33286 0.83332V2.5H6.3329Z" fill="#EBF5FC"/>
<path d="M14.0002 2.5C14.0002 2.96023 13.6271 3.33332 13.1669 3.33332C12.7066 3.33332 12.3335 2.96023 12.3335 2.5V0.83332C12.3335 0.373086 12.7066 0 13.1668 0C13.6271 0 14.0001 0.373086 14.0001 0.83332V2.5H14.0002Z" fill="#EBF5FC"/>
<path d="M13.1667 0C12.9956 0 12.8367 0.0517188 12.7043 0.140156C12.928 0.289609 13.0754 0.54418 13.0754 0.833359V2.5C13.0754 2.78914 12.928 3.04375 12.7043 3.1932C12.8367 3.2816 12.9956 3.33336 13.1667 3.33336C13.6269 3.33336 14 2.96027 14 2.50004V0.83332C14 0.373086 13.627 0 13.1667 0V0Z" fill="#D3DCFB"/>
<path d="M5.49945 0C5.32836 0 5.16945 0.0517188 5.03711 0.140156C5.26074 0.289609 5.40812 0.54418 5.40812 0.833359V2.5C5.40812 2.78914 5.26074 3.04375 5.03711 3.1932C5.16941 3.2816 5.32836 3.33336 5.49945 3.33336C5.95969 3.33336 6.33277 2.96027 6.33277 2.50004V0.83332C6.33281 0.373086 5.95973 0 5.49945 0V0Z" fill="#D3DCFB"/>
<path d="M16.6676 1.3335H15.7417C16.4781 1.3335 17.075 1.93041 17.075 2.66678V6.00018H18.0008V2.66682C18.0009 1.93045 17.4039 1.3335 16.6676 1.3335Z" fill="#E80054"/>
<path d="M1 4H18.3346V4.60363H1V4Z" fill="#E80054"/>
<path d="M14.3335 20C17.0949 20 19.3335 17.7614 19.3335 15C19.3335 12.2386 17.0949 10 14.3335 10C11.5721 10 9.3335 12.2386 9.3335 15C9.3335 17.7614 11.5721 20 14.3335 20Z" fill="#4FABF7"/>
<path d="M14.3337 18.6669C16.3587 18.6669 18.0004 17.0252 18.0004 15.0002C18.0004 12.9751 16.3587 11.3335 14.3337 11.3335C12.3086 11.3335 10.667 12.9751 10.667 15.0002C10.667 17.0252 12.3086 18.6669 14.3337 18.6669Z" fill="#EBF5FC"/>
<path d="M14.3335 14.6353C14.1668 14.6353 14.0317 14.5001 14.0317 14.3335V12.6668C14.0317 12.5001 14.1669 12.365 14.3335 12.365C14.5003 12.365 14.6353 12.5001 14.6353 12.6668V14.3335C14.6353 14.5001 14.5002 14.6353 14.3335 14.6353Z" fill="#3C58A0"/>
<path d="M16.0003 15.3018H15.0003C14.8336 15.3018 14.6985 15.1667 14.6985 15C14.6985 14.8334 14.8336 14.6982 15.0003 14.6982H16.0003C16.167 14.6982 16.3021 14.8334 16.3021 15C16.3021 15.1667 16.167 15.3018 16.0003 15.3018Z" fill="#3C58A0"/>
<path d="M14.3337 10C14.1776 10 14.0233 10.0075 13.8709 10.0215C16.4153 10.2551 18.4081 12.3946 18.4081 15C18.4081 17.6054 16.4153 19.7449 13.8708 19.9785C14.0233 19.9925 14.1776 20 14.3336 20C17.095 20 19.3336 17.7614 19.3336 15C19.3336 12.2386 17.0951 10 14.3337 10Z" fill="#1886EA"/>
<path d="M14.3336 11.3335C14.1769 11.3335 14.0226 11.3434 13.8711 11.3624C15.6778 11.5898 17.0753 13.1318 17.0753 15.0002C17.0753 16.8686 15.6778 18.4105 13.8711 18.6379C14.0226 18.657 14.1769 18.6669 14.3336 18.6669C16.3586 18.6669 18.0002 17.0252 18.0002 15.0002C18.0002 12.9751 16.3586 11.3335 14.3336 11.3335Z" fill="#D3DCFB"/>
<path d="M14.3337 15.6666C14.7019 15.6666 15.0004 15.3681 15.0004 14.9999C15.0004 14.6317 14.7019 14.3333 14.3337 14.3333C13.9655 14.3333 13.667 14.6317 13.667 14.9999C13.667 15.3681 13.9655 15.6666 14.3337 15.6666Z" fill="#FFDD40"/>
</g>
<defs>
<clipPath id="clip0">
<rect width="20" height="20" fill="white"/>
</clipPath>
</defs>
</svg>
