<svg width="126" height="126" viewBox="0 0 126 126" fill="none" xmlns="http://www.w3.org/2000/svg">
<g clip-path="url(#clip0)">
<path d="M112.744 6.68671C97.1573 -2.60007 76.9881 -2.08448 61.6804 7.43015C53.0799 12.7758 46.4317 20.4857 38.8926 27.1229C32.2865 32.9387 24.6044 37.0871 17.7817 42.5746C-6.9614 62.4754 -4.60053 116.151 30.2405 123.281C45.3433 126.372 65.9848 127.363 74.8614 112.612C83.325 98.5471 86.1639 84.1594 102.701 76.6885C108.464 74.0849 118.097 74.2162 122.001 68.5109C126.927 61.3112 120.814 53.832 117.553 47.5579C113.351 39.4722 112.469 31.5004 115.426 22.827C117.944 15.4413 119.717 12.1235 112.744 6.68671Z" fill="url(#paint0_linear)"/>
<path opacity="0.1" d="M99.1336 70.0274C99.1336 65.7103 97.2233 61.8417 94.205 59.2127V19.2208C94.205 17.8706 93.1105 16.7761 91.7603 16.7761H34.5058C33.1555 16.7761 32.061 17.8706 32.061 19.2208V35.3663C28.071 36.1183 25.0518 39.6196 25.0518 43.8282C25.0518 48.0368 28.071 51.5382 32.061 52.2902V116.257C32.061 117.608 33.1555 118.702 34.5058 118.702H91.7603C93.1105 118.702 94.205 117.608 94.205 116.257V80.8421C97.2233 78.2131 99.1336 74.3445 99.1336 70.0274Z" fill="#2626BC"/>
<path d="M105.867 94.3637C105.192 94.3637 104.645 93.8165 104.645 93.1413C104.645 92.3323 103.987 91.6745 103.178 91.6745C102.503 91.6745 101.956 91.1273 101.956 90.4521C101.956 89.7769 102.503 89.2297 103.178 89.2297C103.987 89.2297 104.645 88.5719 104.645 87.7629C104.645 87.0877 105.192 86.5405 105.867 86.5405C106.542 86.5405 107.09 87.0877 107.09 87.7629C107.09 88.5719 107.748 89.2297 108.557 89.2297C109.232 89.2297 109.779 89.7769 109.779 90.4521C109.779 91.1273 109.232 91.6745 108.557 91.6745C107.748 91.6745 107.09 92.3323 107.09 93.1413C107.09 93.8165 106.543 94.3637 105.867 94.3637Z" fill="#6583FE"/>
<path d="M18.3354 35.9484C17.6604 35.9484 17.113 35.4012 17.113 34.726C17.113 33.917 16.4552 33.2592 15.6462 33.2592C14.9712 33.2592 14.4238 32.712 14.4238 32.0368C14.4238 31.3616 14.9712 30.8144 15.6462 30.8144C16.4552 30.8144 17.113 30.1566 17.113 29.3476C17.113 28.6724 17.6604 28.1252 18.3354 28.1252C19.0104 28.1252 19.5578 28.6724 19.5578 29.3476C19.5578 30.1566 20.2156 30.8144 21.0246 30.8144C21.6996 30.8144 22.247 31.3616 22.247 32.0368C22.247 32.712 21.6996 33.2592 21.0246 33.2592C20.2156 33.2592 19.5578 33.917 19.5578 34.726C19.5578 35.4012 19.0104 35.9484 18.3354 35.9484Z" fill="#6583FE"/>
<path d="M108.557 58.891C107.882 58.891 107.334 58.3439 107.334 57.6686C107.334 56.8597 106.676 56.2018 105.867 56.2018C105.192 56.2018 104.645 55.6547 104.645 54.9794C104.645 54.3042 105.192 53.7571 105.867 53.7571C106.676 53.7571 107.334 53.099 107.334 52.29C107.334 51.6148 107.882 51.0676 108.557 51.0676C109.232 51.0676 109.779 51.6148 109.779 52.29C109.779 53.099 110.437 53.7571 111.246 53.7571C111.921 53.7571 112.468 54.3042 112.468 54.9794C112.468 55.6547 111.921 56.2018 111.246 56.2018C110.437 56.2018 109.779 56.8597 109.779 57.6686C109.779 58.3436 109.232 58.891 108.557 58.891Z" fill="#01ECA5"/>
<path d="M91.7603 112.835H34.5058C33.1555 112.835 32.061 111.74 32.061 110.39V13.3534C32.061 12.0032 33.1555 10.9087 34.5058 10.9087H91.7603C93.1105 10.9087 94.205 12.0032 94.205 13.3534V110.39C94.205 111.74 93.1105 112.835 91.7603 112.835Z" fill="white"/>
<path d="M32.0625 24.127H94.205V88.614H32.0625V24.127Z" fill="#D2DEFF"/>
<path d="M94.205 58.4997V80.1404C91.6845 82.3333 88.3939 83.6608 84.7928 83.6608C76.8719 83.6608 70.452 77.2409 70.452 69.32C70.452 61.3991 76.8719 54.9792 84.7928 54.9792C88.3939 54.9792 91.6845 56.3067 94.205 58.4997Z" fill="#B7C5FF"/>
<path d="M74.2653 42.7566V50.1494C74.2653 50.8242 73.7177 51.3718 73.043 51.3718H33.6658C33.1181 51.3718 32.5827 51.3204 32.062 51.2227V34.2929C32.5827 34.1951 33.1181 34.1438 33.6658 34.1438H65.6526C70.4076 34.1438 74.2653 38.0016 74.2653 42.7566Z" fill="#B7C5FF"/>
<path d="M64.9439 19.4738H49.8381C49.1632 19.4738 48.6158 18.9266 48.6158 18.2514C48.6158 17.5762 49.1632 17.0291 49.8381 17.0291H64.9436C65.6186 17.0291 66.166 17.5762 66.166 18.2514C66.166 18.9266 65.6188 19.4738 64.9439 19.4738Z" fill="#B7C5FF"/>
<path d="M80.3304 20.5127H78.2524C77.5774 20.5127 77.03 19.9654 77.03 19.2904V17.2124C77.03 16.5374 77.5774 15.99 78.2524 15.99H80.3304C81.0054 15.99 81.5528 16.5374 81.5528 17.2124V19.2904C81.5528 19.9656 81.0054 20.5127 80.3304 20.5127Z" fill="#D2DEFF"/>
<path d="M87.1192 20.5127H85.0411C84.3662 20.5127 83.8188 19.9654 83.8188 19.2904V17.2124C83.8188 16.5374 84.3662 15.99 85.0411 15.99H87.1192C87.7942 15.99 88.3415 16.5374 88.3415 17.2124V19.2904C88.3415 19.9656 87.7944 20.5127 87.1192 20.5127Z" fill="#D2DEFF"/>
<path d="M87.1192 97.2007H85.0411C84.3662 97.2007 83.8188 96.6533 83.8188 95.9784V93.9003C83.8188 93.2254 84.3662 92.678 85.0411 92.678H87.1192C87.7942 92.678 88.3415 93.2254 88.3415 93.9003V95.9784C88.3415 96.6533 87.7944 97.2007 87.1192 97.2007Z" fill="#D2DEFF"/>
<path d="M75.6855 97.7249H41.5815C40.0289 97.7249 38.7701 96.4661 38.7701 94.9135C38.7701 93.3608 40.0289 92.1021 41.5815 92.1021H75.6855C77.2381 92.1021 78.4969 93.3608 78.4969 94.9135C78.4969 96.4661 77.2381 97.7249 75.6855 97.7249Z" fill="#D2DEFF"/>
<path d="M73.0427 46.5744H33.6653C28.9083 46.5744 25.052 42.7181 25.052 37.9612C25.052 33.2042 28.9083 29.3479 33.6653 29.3479H65.6518C70.4088 29.3479 74.2651 33.2042 74.2651 37.9612V45.3521C74.2651 46.0271 73.718 46.5744 73.0427 46.5744Z" fill="white"/>
<path d="M60.0353 36.903H34.7277C34.0525 36.903 33.5054 36.3556 33.5054 35.6806C33.5054 35.0056 34.0525 34.4583 34.7277 34.4583H60.0353C60.7105 34.4583 61.2577 35.0056 61.2577 35.6806C61.2577 36.3556 60.7105 36.903 60.0353 36.903Z" fill="#9FB0FE"/>
<path d="M43.2391 52.7423H39.2004C38.5252 52.7423 37.978 52.195 37.978 51.52C37.978 50.845 38.5252 50.2976 39.2004 50.2976H43.2391C43.9143 50.2976 44.4614 50.845 44.4614 51.52C44.4614 52.195 43.9143 52.7423 43.2391 52.7423Z" fill="#8399FE"/>
<path d="M65.9026 41.464H34.7277C34.0525 41.464 33.5054 40.9166 33.5054 40.2417C33.5054 39.5667 34.0525 39.0193 34.7277 39.0193H65.9026C66.5779 39.0193 67.125 39.5667 67.125 40.2417C67.125 40.9166 66.5779 41.464 65.9026 41.464Z" fill="#9FB0FE"/>
<path d="M44.6753 20.1543H43.9825L44.0922 20.8204L44.1922 21.428L44.2475 21.7631C44.2868 22.002 44.1025 22.2191 43.8607 22.2191H42.2318V24.1274H37.3353V17.9435C37.3353 15.8083 39.0661 14.0776 41.2011 14.0776C43.3361 14.0776 45.067 15.8085 45.067 17.9435V19.7621C45.067 19.9785 44.8917 20.1543 44.6753 20.1543Z" fill="#FFA8CF"/>
<path d="M40.654 107.077C42.1641 107.077 43.3882 105.853 43.3882 104.343C43.3882 102.833 42.1641 101.609 40.654 101.609C39.144 101.609 37.9199 102.833 37.9199 104.343C37.9199 105.853 39.144 107.077 40.654 107.077Z" fill="#02FFB3"/>
<path d="M48.1469 107.077C49.657 107.077 50.8811 105.853 50.8811 104.343C50.8811 102.833 49.657 101.609 48.1469 101.609C46.6369 101.609 45.4127 102.833 45.4127 104.343C45.4127 105.853 46.6369 107.077 48.1469 107.077Z" fill="#02FFB3"/>
<path d="M55.6399 107.077C57.15 107.077 58.3741 105.853 58.3741 104.343C58.3741 102.833 57.15 101.609 55.6399 101.609C54.1299 101.609 52.9058 102.833 52.9058 104.343C52.9058 105.853 54.1299 107.077 55.6399 107.077Z" fill="#02FFB3"/>
<path d="M63.133 107.077C64.6431 107.077 65.8672 105.853 65.8672 104.343C65.8672 102.833 64.6431 101.609 63.133 101.609C61.623 101.609 60.3989 102.833 60.3989 104.343C60.3989 105.853 61.623 107.077 63.133 107.077Z" fill="#02FFB3"/>
<path d="M70.6261 107.077C72.1362 107.077 73.3603 105.853 73.3603 104.343C73.3603 102.833 72.1362 101.609 70.6261 101.609C69.1161 101.609 67.892 102.833 67.892 104.343C67.892 105.853 69.1161 107.077 70.6261 107.077Z" fill="#02FFB3"/>
<path d="M78.1192 107.077C79.6293 107.077 80.8534 105.853 80.8534 104.343C80.8534 102.833 79.6293 101.609 78.1192 101.609C76.6092 101.609 75.3851 102.833 75.3851 104.343C75.3851 105.853 76.6092 107.077 78.1192 107.077Z" fill="#02FFB3"/>
<path d="M85.6124 107.077C87.1224 107.077 88.3465 105.853 88.3465 104.343C88.3465 102.833 87.1224 101.609 85.6124 101.609C84.1023 101.609 82.8782 102.833 82.8782 104.343C82.8782 105.853 84.1023 107.077 85.6124 107.077Z" fill="#02FFB3"/>
<path d="M84.7931 78.5004C92.7131 78.5004 99.1336 72.0799 99.1336 64.1599C99.1336 56.2398 92.7131 49.8193 84.7931 49.8193C76.873 49.8193 70.4526 56.2398 70.4526 64.1599C70.4526 72.0799 76.873 78.5004 84.7931 78.5004Z" fill="#02FFB3"/>
<path d="M86.94 84.8832H82.9013C82.2261 84.8832 81.679 84.3358 81.679 83.6608C81.679 82.9859 82.2261 82.4385 82.9013 82.4385H86.94C87.6152 82.4385 88.1624 82.9859 88.1624 83.6608C88.1624 84.3358 87.6152 84.8832 86.94 84.8832Z" fill="#8399FE"/>
<path d="M39.2214 84.9248C39.908 84.9248 40.4646 84.3682 40.4646 83.6816C40.4646 82.9951 39.908 82.4385 39.2214 82.4385C38.5348 82.4385 37.9783 82.9951 37.9783 83.6816C37.9783 84.3682 38.5348 84.9248 39.2214 84.9248Z" fill="#8399FE"/>
<path d="M43.3882 84.9248C44.0747 84.9248 44.6313 84.3682 44.6313 83.6816C44.6313 82.9951 44.0747 82.4385 43.3882 82.4385C42.7016 82.4385 42.145 82.9951 42.145 83.6816C42.145 84.3682 42.7016 84.9248 43.3882 84.9248Z" fill="#8399FE"/>
<path d="M47.555 84.9248C48.2415 84.9248 48.7981 84.3682 48.7981 83.6816C48.7981 82.9951 48.2415 82.4385 47.555 82.4385C46.8684 82.4385 46.3118 82.9951 46.3118 83.6816C46.3118 84.3682 46.8684 84.9248 47.555 84.9248Z" fill="#8399FE"/>
<path d="M51.722 84.9248C52.4086 84.9248 52.9652 84.3682 52.9652 83.6816C52.9652 82.9951 52.4086 82.4385 51.722 82.4385C51.0355 82.4385 50.4789 82.9951 50.4789 83.6816C50.4789 84.3682 51.0355 84.9248 51.722 84.9248Z" fill="#8399FE"/>
<path d="M102.699 46.6817C102.387 46.6817 102.074 46.5624 101.835 46.3235L99.1458 43.6343C98.6684 43.1571 98.6684 42.3831 99.1458 41.9059L101.835 39.2167C102.312 38.7393 103.086 38.7393 103.564 39.2167L106.253 41.9059C106.73 42.3831 106.73 43.1571 106.253 43.6343L103.564 46.3235C103.325 46.5624 103.012 46.6817 102.699 46.6817ZM101.739 42.7701L102.699 43.7307L103.66 42.7701L102.699 41.8096L101.739 42.7701Z" fill="#FF7EB8"/>
<path d="M20.2911 56.2017C19.9782 56.2017 19.6655 56.0824 19.4267 55.8436L16.7375 53.1544C16.26 52.6772 16.26 51.9032 16.7375 51.426L19.4267 48.7368C19.9041 48.2593 20.6779 48.2593 21.1554 48.7368L23.8446 51.426C24.322 51.9032 24.322 52.6772 23.8446 53.1544L21.1554 55.8436C20.9167 56.0822 20.6041 56.2017 20.2911 56.2017ZM19.3306 52.2902L20.2911 53.2505L21.2517 52.2899L20.2911 51.3296L19.3306 52.2902Z" fill="#FF7EB8"/>
<path d="M84.7931 71.8681C87.0552 71.8681 88.889 70.0343 88.889 67.7722C88.889 65.5101 87.0552 63.6763 84.7931 63.6763C82.531 63.6763 80.6972 65.5101 80.6972 67.7722C80.6972 70.0343 82.531 71.8681 84.7931 71.8681Z" fill="#6583FE"/>
<path d="M88.1934 70.0537C87.4576 71.149 86.2083 71.8677 84.7928 71.8677C83.3773 71.8677 82.1281 71.149 81.3922 70.0537C82.1281 68.9585 83.3773 68.2397 84.7928 68.2397C86.2083 68.2397 87.4576 68.9585 88.1934 70.0537Z" fill="#FF7EB8"/>
<path d="M32.0611 53.5809C31.3861 53.5809 30.8387 54.128 30.8387 54.8032V110.39C30.8387 112.412 32.4838 114.057 34.5058 114.057H91.7604C93.7824 114.057 95.4274 112.412 95.4274 110.39V75.4991C98.487 72.6167 100.356 68.5392 100.356 64.1599C100.356 59.6883 98.4574 55.6537 95.4274 52.8122V13.3534C95.4274 11.3313 93.7824 9.68628 91.7604 9.68628H34.5058C32.4838 9.68628 30.8387 11.3313 30.8387 13.3534V28.541C26.7891 29.7585 23.8297 33.5197 23.8297 37.9608C23.8297 43.3844 28.242 47.7964 33.6653 47.7964H73.043C74.3911 47.7964 75.4878 46.6997 75.4878 45.3517V37.9608C75.4878 32.5371 71.0755 28.1251 65.6521 28.1251H33.6653C33.5372 28.1251 33.4103 28.13 33.2835 28.1349V13.3534C33.2835 12.6794 33.8318 12.131 34.5058 12.131H91.7604C92.4344 12.131 92.9827 12.6794 92.9827 13.3534V50.9342C90.602 49.4546 87.7962 48.597 84.7929 48.597C76.2114 48.597 69.23 55.5787 69.23 64.1599C69.23 71.0289 73.6359 77.005 80.1934 79.031C80.8388 79.2297 81.5228 78.8691 81.7221 78.2237C81.9213 77.5788 81.56 76.8943 80.9151 76.695C75.388 74.9876 71.6747 69.95 71.6747 64.1599C71.6747 56.9265 77.5594 51.0418 84.7929 51.0418C92.0263 51.0418 97.911 56.9265 97.911 64.1599C97.911 69.9659 94.0178 75.1468 88.4436 76.7593C87.795 76.9468 87.4215 77.6245 87.609 78.2731C87.7637 78.808 88.2522 79.1559 88.7827 79.1559C88.8951 79.1559 89.0095 79.1405 89.123 79.1075C90.5052 78.7078 91.7987 78.1208 92.9827 77.3832V110.39C92.9827 111.064 92.4344 111.612 91.7604 111.612H34.5058C33.8318 111.612 33.2835 111.064 33.2835 110.39V54.8032C33.2835 54.128 32.7361 53.5809 32.0611 53.5809ZM65.6519 30.5699C69.7273 30.5699 73.0428 33.8856 73.0428 37.9608L73.0443 45.3517H33.6653C29.59 45.3517 26.2744 42.0359 26.2744 37.9608C26.2744 33.8856 29.59 30.5699 33.6653 30.5699H65.6519Z" fill="#2626BC"/>
<path d="M78.2471 60.0329V60.6991C78.2471 61.3743 78.7945 61.9215 79.4695 61.9215C80.1445 61.9215 80.6919 61.3743 80.6919 60.6991V60.0329C80.6919 59.3577 80.1445 58.8105 79.4695 58.8105C78.7945 58.8105 78.2471 59.3577 78.2471 60.0329Z" fill="#2626BC"/>
<path d="M91.3389 60.6989V60.0327C91.3389 59.3574 90.7915 58.8103 90.1165 58.8103C89.4415 58.8103 88.8942 59.3574 88.8942 60.0327V60.6989C88.8942 61.3741 89.4415 61.9212 90.1165 61.9212C90.7915 61.9212 91.3389 61.3741 91.3389 60.6989Z" fill="#2626BC"/>
</g>
<defs>
<linearGradient id="paint0_linear" x1="1.31987" y1="62.5849" x2="123.85" y2="62.5849" gradientUnits="userSpaceOnUse">
<stop stop-color="#FFDBED"/>
<stop offset="1" stop-color="#DCFDEE"/>
</linearGradient>
<clipPath id="clip0">
<rect width="125.17" height="125.17" fill="white"/>
</clipPath>
</defs>
</svg>
