<svg width="123" height="126" viewBox="0 0 123 126" fill="none" xmlns="http://www.w3.org/2000/svg">
<path d="M111.424 6.68671C95.8371 -2.60007 75.6679 -2.08448 60.3602 7.43015C51.7597 12.7758 45.1115 20.4857 37.5724 27.1229C30.9663 32.9387 23.2842 37.0871 16.4615 42.5746C-8.28159 62.4754 -5.92071 116.151 28.9203 123.281C44.0231 126.372 64.6646 127.363 73.5412 112.612C82.0048 98.547 84.8437 84.1593 101.381 76.6885C107.144 74.0849 116.776 74.2161 120.68 68.5109C125.607 61.3112 119.494 53.832 116.233 47.5579C112.03 39.4722 111.149 31.5004 114.106 22.827C116.624 15.4413 118.397 12.1235 111.424 6.68671Z" fill="url(#paint0_linear)"/>
<path opacity="0.1" d="M90.4081 75.121C80.2989 75.121 71.6585 81.4069 68.1807 90.2832C68.1565 90.2744 68.1347 90.2617 68.1095 90.2544L54.7511 86.3445C55.5515 83.9585 55.9859 81.4047 55.9859 78.749C55.9859 72.5851 53.6487 66.9671 49.8125 62.7326L64.3894 52.8195C64.4068 52.8075 64.4202 52.7923 64.4368 52.7796C68.8092 58.2663 75.5479 61.7836 83.1092 61.7836C96.2892 61.7836 106.974 51.0991 106.974 37.9191C106.974 24.7391 96.2892 14.0547 83.1092 14.0547C69.9291 14.0547 59.2447 24.7391 59.2447 37.9191C59.2447 42.6626 60.6289 47.0827 63.015 50.7979H63.0147L48.2699 60.8255C48.1953 60.8761 48.1293 60.9345 48.0699 60.9976C43.8432 57.1977 38.2528 54.8848 32.1217 54.8848C18.9417 54.8848 8.25726 65.5692 8.25726 78.7492C8.25726 91.9292 18.9417 102.614 32.1217 102.614C41.783 102.614 50.1032 96.8722 53.857 88.6154C53.9008 88.634 53.9423 88.6553 53.989 88.669L67.4099 92.5971C66.8461 94.6307 66.5437 96.7727 66.5437 98.9857C66.5437 112.166 77.2281 122.85 90.4081 122.85C103.588 122.85 114.273 112.166 114.273 98.9857C114.273 85.8054 103.588 75.121 90.4081 75.121Z" fill="#2626BC"/>
<path d="M83.1091 55.9161C96.2891 55.9161 106.974 45.2317 106.974 32.0517C106.974 18.8717 96.2891 8.18726 83.1091 8.18726C69.9292 8.18726 59.2447 18.8717 59.2447 32.0517C59.2447 45.2317 69.9292 55.9161 83.1091 55.9161Z" fill="#6583FE"/>
<path d="M98.6999 29.6738V50.119C94.5194 53.7299 89.0701 55.9154 83.1099 55.9154C81.6919 55.9154 80.3033 55.7908 78.9538 55.5536V46.9164H72.3848C71.4094 46.9164 70.6662 46.0412 70.8251 45.078L71.0476 43.726L71.451 41.2764L71.8935 38.5897H69.0991C68.2264 38.5897 67.5198 37.8807 67.5198 37.0079V29.6738C67.5198 21.0634 74.4995 14.0837 83.1099 14.0837C91.7202 14.0837 98.6999 21.0634 98.6999 29.6738Z" fill="white"/>
<path d="M81.2495 42.1173C81.1272 42.1833 78.1813 43.7137 71.0476 43.7259L71.451 41.2763C77.5726 41.2152 80.0784 39.9684 80.1053 39.9561C80.7018 39.6506 81.4401 39.8804 81.7506 40.4744C82.0611 41.0685 81.8411 41.7995 81.2495 42.1173Z" fill="#6583FE"/>
<path d="M79.5134 32.4594C78.8382 32.4594 78.2911 31.912 78.2911 31.237V30.6838C78.2911 30.0088 78.8382 29.4614 79.5134 29.4614C80.1887 29.4614 80.7358 30.0088 80.7358 30.6838V31.237C80.7358 31.912 80.1884 32.4594 79.5134 32.4594Z" fill="#6583FE"/>
<path d="M89.6212 39.1575C88.1744 39.1575 86.7278 38.607 85.6265 37.5056C85.149 37.0284 85.149 36.2544 85.6262 35.7769C86.1037 35.2995 86.8775 35.2993 87.3549 35.7769C88.6044 37.0262 90.6374 37.0262 91.8869 35.7769C93.1362 34.5275 93.1362 32.4947 91.8869 31.2452C90.6372 29.9957 88.6042 29.9957 87.3549 31.2452C86.8775 31.7224 86.1037 31.7226 85.6262 31.2452C85.149 30.7677 85.149 29.9937 85.6265 29.5165C87.8297 27.3143 91.4134 27.314 93.6156 29.5165C95.8183 31.7189 95.8183 35.3029 93.6159 37.5056C92.5145 38.607 91.0677 39.1575 89.6212 39.1575Z" fill="#6583FE"/>
<path d="M32.1215 96.746C45.3014 96.746 55.9859 86.0615 55.9859 72.8815C55.9859 59.7016 45.3014 49.0171 32.1215 49.0171C18.9415 49.0171 8.25702 59.7016 8.25702 72.8815C8.25702 86.0615 18.9415 96.746 32.1215 96.746Z" fill="#02FFB3"/>
<path d="M47.7122 70.5041V90.9493C43.5317 94.5602 38.0824 96.7458 32.1222 96.7458C30.7042 96.7458 29.3156 96.6211 27.9661 96.384V87.7467H21.3972C20.4217 87.7467 19.6785 86.8715 19.8374 85.9083L20.0599 84.5564L20.4633 82.1068L20.9058 79.42H18.1115C17.2387 79.42 16.5322 78.711 16.5322 77.8383V70.5041C16.5322 61.8938 23.5119 54.9141 32.1222 54.9141C40.7325 54.9141 47.7122 61.8938 47.7122 70.5041Z" fill="white"/>
<path d="M30.2618 82.9476C30.1396 83.0136 27.1937 84.544 20.06 84.5562L20.4634 82.1066C26.585 82.0455 29.0908 80.7987 29.1177 80.7865C29.7142 80.4809 30.4525 80.7107 30.763 81.3047C31.0735 81.8988 30.8535 82.6298 30.2618 82.9476Z" fill="#02FFB3"/>
<path d="M28.5258 73.29C27.8506 73.29 27.3035 72.7426 27.3035 72.0676V71.5144C27.3035 70.8394 27.8506 70.292 28.5258 70.292C29.2011 70.292 29.7482 70.8394 29.7482 71.5144V72.0676C29.7482 72.7426 29.2008 73.29 28.5258 73.29Z" fill="#02FFB3"/>
<path d="M38.6336 79.9881C37.1868 79.9881 35.7402 79.4375 34.6389 78.3362C34.1614 77.859 34.1614 77.085 34.6386 76.6075C35.1161 76.1301 35.8899 76.1298 36.3673 76.6075C37.6168 77.8568 39.6498 77.8568 40.8993 76.6075C42.1486 75.358 42.1486 73.3252 40.8993 72.0757C39.6496 70.8262 37.6166 70.8262 36.3673 72.0757C35.8899 72.5529 35.1161 72.5532 34.6386 72.0757C34.1614 71.5983 34.1614 70.8243 34.6389 70.3471C36.8421 68.1449 40.4258 68.1446 42.628 70.3471C44.8307 72.5495 44.8307 76.1335 42.6282 78.3362C41.5269 79.4375 40.0801 79.9881 38.6336 79.9881Z" fill="#02FFB3"/>
<path d="M90.4081 116.983C103.588 116.983 114.273 106.298 114.273 93.1181C114.273 79.9381 103.588 69.2537 90.4081 69.2537C77.2282 69.2537 66.5437 79.9381 66.5437 93.1181C66.5437 106.298 77.2282 116.983 90.4081 116.983Z" fill="#FF7EB8"/>
<path d="M105.999 90.7402V111.185C101.818 114.796 96.3691 116.982 90.4089 116.982C88.9909 116.982 87.6023 116.857 86.2528 116.62V107.983H79.6839C78.7084 107.983 77.9652 107.108 78.1241 106.144L78.3466 104.792L78.75 102.343L79.1925 99.6561H76.3981C75.5254 99.6561 74.8188 98.9471 74.8188 98.0743V90.7402C74.8188 82.1298 81.7985 75.1501 90.4089 75.1501C99.0192 75.1501 105.999 82.1298 105.999 90.7402Z" fill="white"/>
<path d="M88.5485 103.184C88.4262 103.25 85.4803 104.78 78.3466 104.792L78.75 102.343C84.8716 102.282 87.3774 101.035 87.4043 101.023C88.0008 100.717 88.7391 100.947 89.0496 101.541C89.3601 102.135 89.1401 102.866 88.5485 103.184Z" fill="#FF7EB8"/>
<path d="M86.8122 93.5258C86.137 93.5258 85.5898 92.9784 85.5898 92.3034V91.7502C85.5898 91.0752 86.137 90.5278 86.8122 90.5278C87.4874 90.5278 88.0346 91.0752 88.0346 91.7502V92.3034C88.0346 92.9784 87.4874 93.5258 86.8122 93.5258Z" fill="#FF7EB8"/>
<path d="M96.9202 100.224C95.4734 100.224 94.0269 99.6736 92.9255 98.5723C92.4481 98.0951 92.448 97.3211 92.9253 96.8436C93.4027 96.3661 94.1765 96.3659 94.6539 96.8436C95.9034 98.0929 97.9365 98.0929 99.186 96.8436C100.435 95.5941 100.435 93.5613 99.186 92.3118C97.9362 91.0623 95.9032 91.0623 94.6539 92.3118C94.1765 92.789 93.4027 92.7893 92.9253 92.3118C92.448 91.8344 92.4481 91.0604 92.9255 90.5831C95.1287 88.3809 98.7124 88.3807 100.915 90.5831C103.117 92.7856 103.117 96.3696 100.915 98.5723C99.8135 99.6734 98.3667 100.224 96.9202 100.224Z" fill="#FF7EB8"/>
<path d="M36.5933 34.618C35.9181 34.618 35.371 34.0707 35.371 33.3957C35.371 32.5867 34.7128 31.9288 33.9039 31.9288C33.2286 31.9288 32.6815 31.3815 32.6815 30.7065C32.6815 30.0315 33.2286 29.4841 33.9039 29.4841C34.7128 29.4841 35.371 28.8262 35.371 28.0173C35.371 27.3423 35.9181 26.7949 36.5933 26.7949C37.2686 26.7949 37.8157 27.3423 37.8157 28.0173C37.8157 28.8262 38.4736 29.4841 39.2823 29.4841C39.9575 29.4841 40.5046 30.0315 40.5046 30.7065C40.5046 31.3815 39.9575 31.9288 39.2823 31.9288C38.4736 31.9288 37.8157 32.5867 37.8157 33.3957C37.8157 34.0707 37.2686 34.618 36.5933 34.618Z" fill="#01ECA5"/>
<path d="M109.609 59.8805C108.934 59.8805 108.387 59.3331 108.387 58.6581C108.387 57.8492 107.729 57.1913 106.92 57.1913C106.245 57.1913 105.698 56.6439 105.698 55.9689C105.698 55.2939 106.245 54.7466 106.92 54.7466C107.729 54.7466 108.387 54.0887 108.387 53.2797C108.387 52.6047 108.934 52.0574 109.609 52.0574C110.285 52.0574 110.832 52.6047 110.832 53.2797C110.832 54.0887 111.49 54.7466 112.299 54.7466C112.974 54.7466 113.521 55.2939 113.521 55.9689C113.521 56.6439 112.974 57.1913 112.299 57.1913C111.49 57.1913 110.832 57.8492 110.832 58.6581C110.832 59.3331 110.285 59.8805 109.609 59.8805Z" fill="#FF7EB8"/>
<path d="M44.6407 110.171C43.9655 110.171 43.4183 109.624 43.4183 108.949C43.4183 108.14 42.7604 107.482 41.9515 107.482C41.2763 107.482 40.7291 106.934 40.7291 106.259C40.7291 105.584 41.2763 105.037 41.9515 105.037C42.7604 105.037 43.4183 104.379 43.4183 103.57C43.4183 102.895 43.9655 102.348 44.6407 102.348C45.3159 102.348 45.8631 102.895 45.8631 103.57C45.8631 104.379 46.5209 105.037 47.3299 105.037C48.0051 105.037 48.5522 105.584 48.5522 106.259C48.5522 106.934 48.0051 107.482 47.3299 107.482C46.5209 107.482 45.8631 108.14 45.8631 108.949C45.8631 109.624 45.3159 110.171 44.6407 110.171Z" fill="#01ECA5"/>
<path d="M45.6367 41.7079C45.324 41.7079 45.0108 41.5886 44.7724 41.35L42.0832 38.6608C41.6058 38.1833 41.6058 37.4093 42.0832 36.9321L44.7724 34.2429C45.2494 33.7657 46.0239 33.7657 46.5009 34.2429L49.1901 36.9321C49.6675 37.4096 49.6675 38.1836 49.1901 38.6608L46.5009 41.35C46.2625 41.5883 45.9496 41.7079 45.6367 41.7079ZM44.6764 37.7963L45.6369 38.7569L46.5974 37.7963L45.6369 36.8358L44.6764 37.7963Z" fill="#FF7EB8"/>
<path d="M58.6724 113.416C58.3597 113.416 58.0466 113.296 57.8082 113.058L55.119 110.369C54.6416 109.891 54.6416 109.117 55.119 108.64L57.8082 105.951C58.2852 105.473 59.0597 105.473 59.5366 105.951L62.2258 108.64C62.7033 109.117 62.7033 109.891 62.2258 110.369L59.5366 113.058C59.2983 113.296 58.9854 113.416 58.6724 113.416ZM57.7121 109.504L58.6727 110.465L59.6332 109.504L58.6727 108.544L57.7121 109.504Z" fill="#6583FE"/>
<path d="M32.1214 97.9686C42.3152 97.9686 51.1074 91.8567 55.0285 83.1056L66.2356 86.3857C65.632 88.5578 65.3213 90.8175 65.3213 93.118C65.3213 106.951 76.5751 118.205 90.4081 118.205C104.241 118.205 115.495 106.951 115.495 93.118C115.495 79.285 104.241 68.0312 90.4081 68.0312C85.1918 68.0312 80.1901 69.6178 75.9439 72.6192C75.3926 73.0089 75.2615 73.7716 75.6512 74.3229C76.0412 74.8745 76.8042 75.005 77.3549 74.6155C81.1863 71.9073 85.7003 70.4759 90.4083 70.4759C102.893 70.4759 113.05 80.633 113.05 93.118C113.05 105.603 102.893 115.76 90.4083 115.76C77.9236 115.76 67.7662 105.603 67.7662 93.118C67.7662 88.4485 69.1771 83.9647 71.8462 80.1511C72.2332 79.5979 72.0988 78.8359 71.5458 78.4489C70.9928 78.0619 70.2305 78.1961 69.8433 78.7493C68.6767 80.4162 67.7306 82.1998 67.0081 84.0647L55.9208 80.8195C56.7554 78.3237 57.2087 75.6548 57.2087 72.8817C57.2087 66.4724 54.7916 60.6178 50.8223 56.1786L63.4364 47.6003C68.0352 53.4066 75.1447 57.1384 83.1096 57.1384C89.0806 57.1384 94.8653 55.0049 99.3981 51.1308C103.88 47.3001 106.882 42.0046 107.849 36.2199C107.961 35.554 107.511 34.924 106.846 34.8125C106.181 34.7022 105.55 35.1506 105.438 35.8163C104.565 41.0355 101.856 45.8142 97.8097 49.2723C93.7192 52.7683 88.4985 54.6937 83.1096 54.6937C70.6246 54.6937 60.4673 44.5366 60.4673 32.0516C60.4673 19.5667 70.6246 9.40957 83.1096 9.40957C94.0771 9.40957 103.448 17.2305 105.391 28.0059C105.511 28.6703 106.146 29.1111 106.811 28.9918C107.475 28.872 107.917 28.2364 107.797 27.5719C105.643 15.6314 95.2611 6.96484 83.1093 6.96484C69.2764 6.96484 58.0223 18.2187 58.0223 32.0516C58.0223 37.0438 59.4886 41.6998 62.0123 45.6123L49.0768 54.4092C44.6086 50.3045 38.653 47.7947 32.1214 47.7947C18.2884 47.7947 7.03461 59.0485 7.03461 72.8815C7.03461 86.7145 18.2884 97.9686 32.1214 97.9686ZM32.1214 50.2394C44.6061 50.2394 54.7635 60.3965 54.7635 72.8815C54.7635 85.3665 44.6061 95.5236 32.1214 95.5236C19.6367 95.5236 9.47933 85.3665 9.47933 72.8815C9.47933 60.3965 19.6367 50.2394 32.1214 50.2394Z" fill="#2626BC"/>
<defs>
<linearGradient id="paint0_linear" x1="-0.000321791" y1="62.5849" x2="122.53" y2="62.5849" gradientUnits="userSpaceOnUse">
<stop stop-color="#FFDBED"/>
<stop offset="1" stop-color="#DCFDEE"/>
</linearGradient>
</defs>
</svg>
