<svg width="126" height="126" viewBox="0 0 126 126" fill="none" xmlns="http://www.w3.org/2000/svg">
<g clip-path="url(#clip0)">
<path d="M118.073 35.1363C109.53 26.348 96.1973 25.1356 86.3326 31.499C83.526 33.3093 80.1276 33.9163 76.8673 33.1925C69.1505 31.479 61.0783 32.6492 54.203 36.3809C49.5808 38.8894 43.9508 38.4533 39.6376 35.4445C36.7743 33.4475 33.4495 32.0163 29.7958 31.343C16.2427 28.8453 3.06591 37.8345 0.460566 51.3671C-2.20394 65.2064 6.97039 78.5065 20.7997 80.97C24.1786 81.5719 27.5198 81.4704 30.6735 80.7705C35.7918 79.6347 41.1394 81.5338 44.4424 85.6052C46.5273 88.1751 49.0414 90.4687 51.9617 92.3744C67.0532 102.222 87.2701 97.9704 97.1175 82.8791C97.128 82.8632 97.1383 82.8471 97.1488 82.8312C98.9523 80.0566 101.757 78.0786 105.001 77.4237C109.733 76.4685 114.243 74.1468 117.899 70.4574C127.524 60.744 127.604 44.9416 118.073 35.1363Z" fill="url(#paint0_linear)"/>
<path opacity="0.1" d="M111.479 24.0897V86.2469C111.479 88.2711 109.837 89.914 107.812 89.914H17.3575C15.3333 89.914 13.6904 88.2711 13.6904 86.2469V24.0897C13.6904 22.0655 15.3333 20.4226 17.3575 20.4226H107.812C109.837 20.4226 111.479 22.0655 111.479 24.0897Z" fill="#2626BC"/>
<path d="M76.449 112.822H48.7207L54.2658 90.8433H70.9039L76.449 112.822Z" fill="#9FB0FE"/>
<path d="M72.8352 98.4957H52.3345L54.2658 90.8433H70.9039L72.8352 98.4957Z" fill="#8399FE"/>
<path d="M111.479 29.2245V91.3816C111.479 93.4059 109.837 95.0487 107.812 95.0487H17.3575C15.3333 95.0487 13.6904 93.4059 13.6904 91.3816V29.2245C13.6904 27.2002 15.3333 25.5574 17.3575 25.5574H107.812C109.837 25.5574 111.479 27.2002 111.479 29.2245Z" fill="white"/>
<path d="M96.6439 37.3335C96.6439 56.1437 81.3952 71.3924 62.585 71.3924C43.7747 71.3924 28.526 56.1437 28.526 37.3335H96.6439Z" fill="#DCFDEE"/>
<path d="M54.9728 82.7289C54.9728 78.5249 58.3808 75.1167 62.585 75.1167C66.7892 75.1167 70.1971 78.5247 70.1971 82.7289H54.9728Z" fill="#B7C5FF"/>
<path d="M111.479 37.3339V29.2245C111.479 27.1993 109.838 25.5574 107.812 25.5574H17.3575C15.3323 25.5574 13.6904 27.1993 13.6904 29.2245V37.3339H111.479Z" fill="#FF7EB8"/>
<path d="M13.6904 82.7288V91.3806C13.6904 93.4059 15.3323 95.0477 17.3575 95.0477H107.812C109.838 95.0477 111.479 93.4059 111.479 91.3806V82.7288H13.6904Z" fill="#B7C5FF"/>
<path d="M83.2151 82.7288C83.2151 71.3352 73.9787 62.0987 62.585 62.0987C51.1914 62.0987 41.9549 71.3352 41.9549 82.7288H34.1511C34.1511 67.0251 46.8813 54.2949 62.585 54.2949C78.2887 54.2949 91.0189 67.0251 91.0189 82.7288H83.2151Z" fill="#FF5BA8"/>
<path d="M62.585 62.0987C51.1914 62.0987 41.9549 71.3352 41.9549 82.7288H34.1511C34.1511 67.0251 46.8813 54.2949 62.585 54.2949V62.0987Z" fill="#97FFD2"/>
<path d="M83.8199 63.8237L78.2899 69.3537C74.5103 64.9141 68.8752 62.0978 62.585 62.0978V54.2942C71.029 54.2942 78.615 57.9759 83.8199 63.8237Z" fill="#FF7EB8"/>
<path d="M62.585 54.2942V62.0978C56.2947 62.0978 50.6596 64.9141 46.8801 69.3537L41.3501 63.8237C46.5549 57.9759 54.1409 54.2942 62.585 54.2942Z" fill="#02FFB3"/>
<path d="M69.772 70.6133L69.7383 70.5903L70.1294 70.0158C70.5093 69.4577 70.3651 68.6974 69.8072 68.3175C69.2491 67.9378 68.489 68.0818 68.1089 68.6397L67.7177 69.2142L67.684 69.1912C67.1258 68.8118 66.3658 68.9558 65.9856 69.5134C65.6057 70.0716 65.7499 70.8319 66.3078 71.2118L66.3416 71.2348L61.5746 78.2347C61.1947 78.7929 61.3389 79.5532 61.8968 79.9331C62.1075 80.0764 62.3469 80.1453 62.5838 80.1453C62.9747 80.1453 63.3585 79.9583 63.5952 79.6109L68.3621 72.6109L68.3959 72.6339C68.6066 72.7771 68.8459 72.8461 69.0828 72.8461C69.4738 72.8461 69.8576 72.6591 70.0942 72.3117C70.4744 71.7535 70.3299 70.9932 69.772 70.6133Z" fill="#9FB0FE"/>
<path d="M39.3503 44.6887H23.0718C22.3802 44.6887 21.8194 44.1279 21.8194 43.4363C21.8194 42.7447 22.38 42.1838 23.0718 42.1838H39.3503C40.0419 42.1838 40.6027 42.7447 40.6027 43.4363C40.6025 44.1279 40.0419 44.6887 39.3503 44.6887Z" fill="#B7C5FF"/>
<path d="M34.9498 49.3335H27.4723C26.7807 49.3335 26.2199 48.7727 26.2199 48.081C26.2199 47.3894 26.7805 46.8286 27.4723 46.8286H34.9498C35.6414 46.8286 36.2022 47.3894 36.2022 48.081C36.202 48.7727 35.6414 49.3335 34.9498 49.3335Z" fill="#6583FE"/>
<path d="M102.098 44.6887H85.8196C85.128 44.6887 84.5672 44.1279 84.5672 43.4363C84.5672 42.7447 85.1278 42.1838 85.8196 42.1838H102.098C102.79 42.1838 103.351 42.7447 103.351 43.4363C103.351 44.1279 102.79 44.6887 102.098 44.6887Z" fill="#B7C5FF"/>
<path d="M97.6976 49.3335H90.2202C89.5285 49.3335 88.9677 48.7727 88.9677 48.081C88.9677 47.3894 89.5283 46.8286 90.2202 46.8286H97.6976C98.3892 46.8286 98.95 47.3894 98.95 48.081C98.95 48.7727 98.3895 49.3335 97.6976 49.3335Z" fill="#6583FE"/>
<path d="M32.8848 61.5575H29.5372C29.1321 61.5575 28.8038 61.2292 28.8038 60.8241V54.8345C28.8038 54.4294 29.1321 54.1011 29.5372 54.1011H32.8848C33.2898 54.1011 33.6182 54.4294 33.6182 54.8345V60.8241C33.6182 61.2292 33.2898 61.5575 32.8848 61.5575Z" fill="#FFA8CF"/>
<path d="M95.6328 61.5575H92.2852C91.8801 61.5575 91.5518 61.2292 91.5518 60.8241V54.8345C91.5518 54.4294 91.8801 54.1011 92.2852 54.1011H95.6328C96.0379 54.1011 96.3662 54.4294 96.3662 54.8345V60.8241C96.3662 61.2292 96.0379 61.5575 95.6328 61.5575Z" fill="#FFA8CF"/>
<path d="M66.719 49.448C67.4737 49.448 68.0856 48.8362 68.0856 48.0814C68.0856 47.3267 67.4737 46.7148 66.719 46.7148C65.9642 46.7148 65.3524 47.3267 65.3524 48.0814C65.3524 48.8362 65.9642 49.448 66.719 49.448Z" fill="#6583FE"/>
<path d="M62.5849 49.448C63.3397 49.448 63.9515 48.8362 63.9515 48.0814C63.9515 47.3267 63.3397 46.7148 62.5849 46.7148C61.8302 46.7148 61.2183 47.3267 61.2183 48.0814C61.2183 48.8362 61.8302 49.448 62.5849 49.448Z" fill="#6583FE"/>
<path d="M58.4509 49.448C59.2056 49.448 59.8175 48.8362 59.8175 48.0814C59.8175 47.3267 59.2056 46.7148 58.4509 46.7148C57.6961 46.7148 57.0843 47.3267 57.0843 48.0814C57.0843 48.8362 57.6961 49.448 58.4509 49.448Z" fill="#6583FE"/>
<path d="M30.4185 111.068C30.1055 111.068 29.7929 110.948 29.554 110.71L26.8604 108.016C26.6311 107.787 26.5025 107.476 26.5025 107.152C26.5025 106.827 26.6313 106.516 26.8604 106.287L29.554 103.594C30.0315 103.116 30.8052 103.116 31.2827 103.594L33.9763 106.287C34.2056 106.516 34.3342 106.827 34.3342 107.152C34.3342 107.476 34.2054 107.787 33.9763 108.016L31.2827 110.71C31.0441 110.948 30.7314 111.068 30.4185 111.068ZM29.4535 107.152L30.4185 108.116L31.3834 107.152L30.4185 106.187L29.4535 107.152Z" fill="#6583FE"/>
<path d="M84.3765 21.8847C83.7015 21.8847 83.1542 21.3373 83.1542 20.6623C83.1542 19.8511 82.4941 19.1911 81.6829 19.1911C81.0079 19.1911 80.4606 18.6437 80.4606 17.9687C80.4606 17.2937 81.0079 16.7463 81.6829 16.7463C82.4941 16.7463 83.1542 16.0863 83.1542 15.2751C83.1542 14.6001 83.7015 14.0527 84.3765 14.0527C85.0515 14.0527 85.5989 14.6001 85.5989 15.2751C85.5989 16.0863 86.259 16.7463 87.0701 16.7463C87.7451 16.7463 88.2925 17.2937 88.2925 17.9687C88.2925 18.6437 87.7451 19.1911 87.0701 19.1911C86.259 19.1911 85.5989 19.8511 85.5989 20.6623C85.5989 21.3373 85.0515 21.8847 84.3765 21.8847Z" fill="#FF7EB8"/>
<path d="M88.4991 107.2C87.8241 107.2 87.2767 106.653 87.2767 105.978C87.2767 105.167 86.6167 104.506 85.8055 104.506C85.1305 104.506 84.5831 103.959 84.5831 103.284C84.5831 102.609 85.1305 102.062 85.8055 102.062C86.6167 102.062 87.2767 101.402 87.2767 100.591C87.2767 99.9155 87.8241 99.3682 88.4991 99.3682C89.1741 99.3682 89.7215 99.9155 89.7215 100.591C89.7215 101.402 90.3815 102.062 91.1927 102.062C91.8677 102.062 92.4151 102.609 92.4151 103.284C92.4151 103.959 91.8677 104.506 91.1927 104.506C90.3815 104.506 89.7215 105.167 89.7215 105.978C89.7215 106.653 89.1741 107.2 88.4991 107.2Z" fill="#FF7EB8"/>
<path d="M98.3946 18.9579C98.0817 18.9579 97.769 18.8386 97.5302 18.6L94.8365 15.9064C94.3591 15.4289 94.3591 14.6549 94.8365 14.1777L97.5302 11.4841C98.0076 11.0069 98.7814 11.0069 99.2588 11.4841L101.952 14.1777C102.43 14.6552 102.43 15.4292 101.952 15.9064L99.2588 18.6C99.0202 18.8386 98.7075 18.9579 98.3946 18.9579ZM97.4297 15.0419L98.3946 16.0069L99.3595 15.0419L98.3946 14.077L97.4297 15.0419Z" fill="#97FFD2"/>
<path d="M23.0004 30.2053C22.3255 30.2053 21.7781 30.7527 21.7781 31.4277V31.4634C21.7781 32.1384 22.3255 32.6857 23.0004 32.6857C23.6754 32.6857 24.2228 32.1384 24.2228 31.4634V31.4277C24.2228 30.7525 23.6754 30.2053 23.0004 30.2053Z" fill="#2626BC"/>
<path d="M27.7249 30.2053C27.0499 30.2053 26.5025 30.7527 26.5025 31.4277V31.4634C26.5025 32.1384 27.0499 32.6857 27.7249 32.6857C28.3999 32.6857 28.9472 32.1384 28.9472 31.4634V31.4277C28.9472 30.7525 28.3999 30.2053 27.7249 30.2053Z" fill="#2626BC"/>
<path d="M32.449 30.2053C31.7741 30.2053 31.2267 30.7527 31.2267 31.4277V31.4634C31.2267 32.1384 31.7741 32.6857 32.449 32.6857C33.124 32.6857 33.6714 32.1384 33.6714 31.4634V31.4277C33.6714 30.7525 33.1243 30.2053 32.449 30.2053Z" fill="#2626BC"/>
<path d="M107.812 24.3347H17.3575C14.6615 24.3347 12.4681 26.5281 12.4681 29.2242V91.3809C12.4681 94.0769 14.6615 96.2703 17.3575 96.2703H51.636L47.7687 111.599H44.0212C43.3462 111.599 42.7988 112.146 42.7988 112.821C42.7988 113.496 43.3462 114.044 44.0212 114.044H81.1488C81.8238 114.044 82.3711 113.496 82.3711 112.821C82.3711 112.146 81.8238 111.599 81.1488 111.599H77.4007L73.5337 96.2703H107.812C110.508 96.2703 112.702 94.0769 112.702 91.3809V82.729C112.702 82.054 112.154 81.5066 111.48 81.5066C111.456 81.5066 111.435 81.5122 111.412 81.5134C111.389 81.5122 111.368 81.5066 111.345 81.5066H14.9128V38.5562H110.257V75.9962C110.257 76.6712 110.805 77.2186 111.48 77.2186C112.154 77.2186 112.702 76.6712 112.702 75.9962V29.2242C112.702 26.5284 110.508 24.3347 107.812 24.3347ZM74.8795 111.599H50.29L54.1573 96.2703H71.0122L74.8795 111.599ZM110.257 83.9513V91.3809C110.257 92.7289 109.16 93.8256 107.812 93.8256H17.3575C16.0095 93.8256 14.9128 92.7289 14.9128 91.3809V83.9513H110.257ZM14.9128 36.1115V29.2242C14.9128 27.8761 16.0095 26.7794 17.3575 26.7794H107.812C109.16 26.7794 110.257 27.8761 110.257 29.2242V36.1112H14.9128V36.1115Z" fill="#2626BC"/>
</g>
<defs>
<linearGradient id="paint0_linear" x1="-4.88165" y1="63.387" x2="129.481" y2="62.1874" gradientUnits="userSpaceOnUse">
<stop stop-color="#FFDBED"/>
<stop offset="1" stop-color="#DCFDEE"/>
</linearGradient>
<clipPath id="clip0">
<rect width="125.17" height="125.17" fill="white"/>
</clipPath>
</defs>
</svg>
