<svg width="126" height="126" viewBox="0 0 126 126" fill="none" xmlns="http://www.w3.org/2000/svg">
<g clip-path="url(#clip0)">
<path d="M118.073 41.8872C109.53 33.0989 96.1973 31.8866 86.3326 38.25C83.5261 40.0603 80.1277 40.6673 76.8674 39.9434C69.1506 38.2299 61.0784 39.4002 54.2031 43.1319C49.5808 45.6404 43.9508 45.2043 39.6376 42.1955C36.7743 40.1984 33.4495 38.7673 29.7959 38.094C16.2428 35.5962 3.06597 44.5855 0.460627 58.118C-2.20388 71.9574 6.97045 85.2574 20.7998 87.721C24.1786 88.3229 27.5198 88.2214 30.6735 87.5215C35.7918 86.3857 41.1394 88.2847 44.4425 92.3562C46.5273 94.9261 49.0415 97.2197 51.9617 99.1254C67.0533 108.973 87.2702 104.721 97.1175 89.6301C97.128 89.6142 97.1383 89.598 97.1488 89.5821C98.9523 86.8076 101.757 84.8296 105.001 84.1747C109.733 83.2195 114.243 80.8977 117.899 77.2084C127.524 67.495 127.604 51.6926 118.073 41.8872Z" fill="url(#paint0_linear)"/>
<path opacity="0.1" d="M117.591 80.5822V63.129C117.591 61.7786 116.497 60.6836 115.146 60.6836H103.164V33.975C103.164 31.9492 101.521 30.3069 99.4955 30.3069H32.7129C30.6872 30.3069 29.0448 31.949 29.0448 33.975V53.3475H10.0241C8.67367 53.3475 7.57867 54.4422 7.57867 55.7929V80.5822H117.591Z" fill="#2626BC"/>
<path d="M77.1092 103.965H55.0993L57.9816 92.5482L59.5023 86.522H72.7062L74.2268 92.5482L77.1092 103.965Z" fill="#9FB0FE"/>
<path d="M74.2268 92.5482H57.9816L59.5022 86.522H72.7062L74.2268 92.5482Z" fill="#8399FE"/>
<path d="M99.4958 89.8593H32.7132C30.6875 89.8593 29.0451 88.2172 29.0451 86.1912V38.3753C29.0451 36.3496 30.6872 34.7073 32.7132 34.7073H99.4958C101.521 34.7073 103.164 36.3494 103.164 38.3753V86.1912C103.164 88.2169 101.521 89.8593 99.4958 89.8593Z" fill="white"/>
<path d="M93.1187 62.4613H39.0902C38.6851 62.4613 38.3568 62.1329 38.3568 61.7279V44.054H93.8521V61.7281C93.8521 62.133 93.5238 62.4613 93.1187 62.4613Z" fill="#FFA8CF"/>
<path d="M71.3005 68.1811H45.2592C44.584 68.1811 44.0369 67.6337 44.0369 66.9587C44.0369 66.2837 44.584 65.7363 45.2592 65.7363H71.3005C71.9757 65.7363 72.5228 66.2837 72.5228 66.9587C72.5228 67.6337 71.9754 68.1811 71.3005 68.1811Z" fill="#B7C5FF"/>
<path d="M71.3005 73.0705H45.2592C44.584 73.0705 44.0369 72.5231 44.0369 71.8481C44.0369 71.1731 44.584 70.6257 45.2592 70.6257H71.3005C71.9757 70.6257 72.5228 71.1731 72.5228 71.8481C72.5228 72.5231 71.9754 73.0705 71.3005 73.0705Z" fill="#B7C5FF"/>
<path d="M84.2575 73.0705H80.2188C79.5436 73.0705 78.9965 72.5231 78.9965 71.8481C78.9965 71.1731 79.5436 70.6257 80.2188 70.6257H84.2575C84.9327 70.6257 85.4799 71.1731 85.4799 71.8481C85.4799 72.5231 84.9325 73.0705 84.2575 73.0705Z" fill="#FFA8CF"/>
<path d="M103.164 44.054V38.3753C103.164 36.3496 101.521 34.7073 99.4958 34.7073H32.7132C30.6875 34.7073 29.0451 36.3494 29.0451 38.3753V44.054H103.164Z" fill="#6583FE"/>
<path d="M29.0451 80.0825V86.1914C29.0451 88.2171 30.6875 89.8595 32.7132 89.8595H99.4958C101.521 89.8595 103.164 88.2173 103.164 86.1914V80.0825H29.0451Z" fill="#B7C5FF"/>
<path d="M115.146 103.965H97.0503C95.6998 103.965 94.6049 102.871 94.6049 101.52V67.5294C94.6049 66.179 95.6996 65.084 97.0503 65.084H115.146C116.496 65.084 117.591 66.1787 117.591 67.5294V101.52C117.591 102.87 116.497 103.965 115.146 103.965Z" fill="#FF7EB8"/>
<path d="M94.6051 88.8127V101.52C94.6051 102.87 95.6998 103.965 97.0503 103.965H115.146C116.496 103.965 117.591 102.871 117.591 101.52V88.8127H94.6051Z" fill="white"/>
<path d="M110.754 68.5601L111.886 65.084H100.311L101.443 68.5601C101.607 69.0635 102.076 69.4043 102.605 69.4043H109.591C110.12 69.4043 110.589 69.0635 110.754 68.5601Z" fill="#B7C5FF"/>
<path d="M42.792 103.965H10.0241C8.67367 103.965 7.57867 102.871 7.57867 101.52V60.1933C7.57867 58.8428 8.67342 57.7478 10.0241 57.7478H42.792C44.1425 57.7478 45.2375 58.8426 45.2375 60.1933V101.52C45.2372 102.87 44.1425 103.965 42.792 103.965Z" fill="white"/>
<path d="M45.2372 65.7362V60.1933C45.2372 58.8428 44.1425 57.7478 42.7918 57.7478H10.0241C8.67367 57.7478 7.57867 58.8426 7.57867 60.1933V65.7362H45.2372Z" fill="#02FFB3"/>
<path d="M21.6408 99.0399H14.0622C13.6571 99.0399 13.3287 98.7116 13.3287 98.3065V72.0257C13.3287 71.6206 13.6571 71.2922 14.0622 71.2922H21.6408C22.0459 71.2922 22.3742 71.6206 22.3742 72.0257V98.3065C22.3742 98.7116 22.0459 99.0399 21.6408 99.0399Z" fill="#FFA8CF"/>
<path d="M38.7539 80.3377H26.5302C26.1251 80.3377 25.7968 80.0094 25.7968 79.6043V72.0257C25.7968 71.6206 26.1251 71.2922 26.5302 71.2922H38.7539C39.159 71.2922 39.4873 71.6206 39.4873 72.0257V79.6043C39.4873 80.0094 39.159 80.3377 38.7539 80.3377Z" fill="#FFA8CF"/>
<path d="M38.7539 99.0401H26.5302C26.1251 99.0401 25.7968 98.7117 25.7968 98.3066V84.4812C25.7968 84.0761 26.1251 83.7478 26.5302 83.7478H38.7539C39.159 83.7478 39.4873 84.0761 39.4873 84.4812V98.3066C39.4873 98.7117 39.159 99.0401 38.7539 99.0401Z" fill="#FFA8CF"/>
<path d="M36.4338 38.144C35.7586 38.144 35.2114 38.6914 35.2114 39.3664V39.3945C35.2114 40.0695 35.7586 40.6169 36.4338 40.6169C37.109 40.6169 37.6562 40.0695 37.6562 39.3945V39.3664C37.6562 38.6914 37.109 38.144 36.4338 38.144Z" fill="#2626BC"/>
<path d="M40.1835 38.144C39.5083 38.144 38.9612 38.6914 38.9612 39.3664V39.3945C38.9612 40.0695 39.5083 40.6169 40.1835 40.6169C40.8588 40.6169 41.4059 40.0695 41.4059 39.3945V39.3664C41.4059 38.6914 40.8588 38.144 40.1835 38.144Z" fill="#2626BC"/>
<path d="M43.933 38.144C43.2578 38.144 42.7106 38.6914 42.7106 39.3664V39.3945C42.7106 40.0695 43.2578 40.6169 43.933 40.6169C44.6082 40.6169 45.1554 40.0695 45.1554 39.3945V39.3664C45.1554 38.6914 44.6082 38.144 43.933 38.144Z" fill="#2626BC"/>
<path d="M115.146 63.8616H104.386V38.3753C104.386 35.6788 102.192 33.4849 99.4955 33.4849H32.7129C30.0164 33.4849 27.8225 35.6788 27.8225 38.3753V51.015C27.8225 51.69 28.3696 52.2374 29.0449 52.2374C29.7201 52.2374 30.2672 51.69 30.2672 51.015V45.2763H101.941V63.8616H97.0503C95.028 63.8616 93.3825 65.5069 93.3825 67.5294V73.3493C93.3825 74.0243 93.9296 74.5717 94.6048 74.5717C95.2801 74.5717 95.8272 74.0243 95.8272 73.3493V67.5294C95.8272 66.8549 96.3758 66.3063 97.0503 66.3063H99.4234L100.281 68.9388C100.61 69.9482 101.544 70.6266 102.605 70.6266H109.591C110.653 70.6266 111.587 69.9485 111.916 68.9388L112.773 66.3065H115.146C115.82 66.3065 116.369 66.8551 116.369 67.5296V101.52C116.369 102.194 115.82 102.743 115.146 102.743H97.0503C96.3758 102.743 95.8272 102.194 95.8272 101.52V80.0826C95.8272 79.4076 95.2801 78.8602 94.6048 78.8602H46.4596V60.1935C46.4596 58.1712 44.8143 56.5259 42.7918 56.5259H10.0241C8.00187 56.5259 6.35632 58.1712 6.35632 60.1935V101.52C6.35632 103.542 8.00162 105.188 10.0241 105.188H42.7918C44.8141 105.188 46.4596 103.542 46.4596 101.52V91.0819H57.0908L54.148 102.743H51.3711C50.6958 102.743 50.1487 103.291 50.1487 103.966C50.1487 104.641 50.6958 105.188 51.3711 105.188H80.8376C81.5128 105.188 82.06 104.641 82.06 103.966C82.06 103.291 81.5128 102.743 80.8376 102.743H78.0606L75.1182 91.0819H93.3827V101.52C93.3827 103.542 95.028 105.188 97.0505 105.188H115.146C117.168 105.188 118.814 103.542 118.814 101.52V67.5294C118.814 65.5071 117.168 63.8616 115.146 63.8616ZM30.2675 42.8315V38.3753C30.2675 37.0268 31.3644 35.9296 32.7132 35.9296H99.4958C100.845 35.9296 101.941 37.0268 101.941 38.3753V42.8315H30.2675ZM109.591 68.1819H102.605L101.994 66.3065H110.202L109.591 68.1819ZM10.0241 58.9702H42.7918C43.4663 58.9702 44.0149 59.5188 44.0149 60.193V64.5136H8.80105V60.193C8.80105 59.5188 9.34965 58.9702 10.0241 58.9702ZM44.0149 101.52C44.0149 102.194 43.4663 102.743 42.7918 102.743H10.0241C9.34965 102.743 8.80105 102.194 8.80105 101.52V66.9585H44.0149V101.52ZM75.5394 102.743H56.6693L59.6118 91.0816H72.5969L75.5394 102.743ZM46.4596 88.6369V81.3047H93.3827V88.6369H46.4596Z" fill="#2626BC"/>
<path d="M13.9775 62.9787C14.6527 62.9787 15.1999 62.4313 15.1999 61.7563V61.7282C15.1999 61.0532 14.6527 60.5059 13.9775 60.5059C13.3023 60.5059 12.7551 61.0532 12.7551 61.7282V61.7563C12.7551 62.4313 13.3023 62.9787 13.9775 62.9787Z" fill="#2626BC"/>
<path d="M17.727 62.9787C18.4022 62.9787 18.9494 62.4313 18.9494 61.7563V61.7282C18.9494 61.0532 18.4022 60.5059 17.727 60.5059C17.0518 60.5059 16.5046 61.0532 16.5046 61.7282V61.7563C16.5046 62.4313 17.0518 62.9787 17.727 62.9787Z" fill="#2626BC"/>
<path d="M21.4765 62.9787C22.1517 62.9787 22.6988 62.4313 22.6988 61.7563V61.7282C22.6988 61.0532 22.1517 60.5059 21.4765 60.5059C20.8012 60.5059 20.2541 61.0532 20.2541 61.7282V61.7563C20.2541 62.4313 20.8012 62.9787 21.4765 62.9787Z" fill="#2626BC"/>
<path d="M65.5424 52.5985L66.1045 52.0367L66.6665 52.5985C66.9053 52.8371 67.218 52.9564 67.5307 52.9564C67.8434 52.9564 68.1565 52.8371 68.3952 52.5983C68.8724 52.1208 68.8724 51.3471 68.3949 50.8696L66.9687 49.4436C66.4917 48.9664 65.7172 48.9664 65.2402 49.4436L63.814 50.8696C63.3365 51.3471 63.3365 52.1208 63.8137 52.5983C64.2912 53.076 65.0654 53.076 65.5424 52.5985Z" fill="#2626BC"/>
<path d="M103.656 98.2656H100.234C99.8288 98.2656 99.5004 97.9373 99.5004 97.5322V76.5484C99.5004 76.1433 99.8288 75.8149 100.234 75.8149H103.656C104.062 75.8149 104.39 76.1433 104.39 76.5484V97.5322C104.39 97.9373 104.062 98.2656 103.656 98.2656Z" fill="#97FFD2"/>
<path d="M97.2747 27.8053C96.5995 27.8053 96.0524 27.2579 96.0524 26.5829C96.0524 25.774 95.3945 25.1161 94.5855 25.1161C93.9103 25.1161 93.3632 24.5687 93.3632 23.8937C93.3632 23.2188 93.9103 22.6714 94.5855 22.6714C95.3945 22.6714 96.0524 22.0135 96.0524 21.2045C96.0524 20.5296 96.5995 19.9822 97.2747 19.9822C97.95 19.9822 98.4971 20.5296 98.4971 21.2045C98.4971 22.0135 99.155 22.6714 99.9639 22.6714C100.639 22.6714 101.186 23.2188 101.186 23.8937C101.186 24.5687 100.639 25.1161 99.9639 25.1161C99.155 25.1161 98.4971 25.774 98.4971 26.5829C98.4971 27.2582 97.9497 27.8053 97.2747 27.8053Z" fill="#97FFD2"/>
<path d="M111.886 59.4918C111.21 59.4918 110.663 58.9445 110.663 58.2695C110.663 57.4605 110.005 56.8026 109.196 56.8026C108.521 56.8026 107.974 56.2553 107.974 55.5803C107.974 54.9053 108.521 54.3579 109.196 54.3579C110.005 54.3579 110.663 53.7 110.663 52.8911C110.663 52.2161 111.21 51.6687 111.886 51.6687C112.561 51.6687 113.108 52.2161 113.108 52.8911C113.108 53.7 113.766 54.3579 114.575 54.3579C115.25 54.3579 115.797 54.9053 115.797 55.5803C115.797 56.2553 115.25 56.8026 114.575 56.8026C113.766 56.8026 113.108 57.4605 113.108 58.2695C113.108 58.9445 112.561 59.4918 111.886 59.4918Z" fill="#6583FE"/>
<path d="M108.463 33.2264C108.15 33.2264 107.837 33.1071 107.599 32.8685L104.909 30.1793C104.432 29.7019 104.432 28.9279 104.909 28.4507L107.599 25.7615C108.076 25.2843 108.85 25.2843 109.327 25.7615L112.016 28.4507C112.494 28.9281 112.494 29.7021 112.016 30.1793L109.327 32.8685C109.089 33.1071 108.775 33.2264 108.463 33.2264ZM107.502 29.3149L108.463 30.2754L109.423 29.3149L108.463 28.3544L107.502 29.3149Z" fill="#FF7EB8"/>
<path d="M17.8517 50.9323C17.539 50.9323 17.2258 50.813 16.9875 50.5743L14.2983 47.8851C13.8208 47.4077 13.8208 46.6337 14.2983 46.1565L16.9875 43.4673C17.4644 42.9901 18.2389 42.9901 18.7159 43.4673L21.4051 46.1565C21.8826 46.6339 21.8826 47.4079 21.4051 47.8851L18.7159 50.5743C18.4773 50.813 18.1644 50.9323 17.8517 50.9323ZM16.8912 47.0207L17.8517 47.9812L18.8122 47.0207L17.8517 46.0602L16.8912 47.0207Z" fill="#FF7EB8"/>
<path d="M88.825 56.377C89.5797 56.377 90.1916 56.9889 90.1916 57.7436C90.1916 58.4982 89.5797 59.1102 88.825 59.1102C88.0704 59.1102 87.4584 58.4982 87.4584 57.7436C87.4584 56.9889 88.0704 56.377 88.825 56.377Z" fill="#FF5BA8"/>
<path d="M88.825 52.2432C89.5797 52.2432 90.1916 52.8551 90.1916 53.6098C90.1916 54.3645 89.5797 54.9764 88.825 54.9764C88.0704 54.9764 87.4584 54.3645 87.4584 53.6098C87.4584 52.8551 88.0704 52.2432 88.825 52.2432Z" fill="#FF5BA8"/>
<path d="M88.825 48.1091C89.5797 48.1091 90.1916 48.721 90.1916 49.4757C90.1916 50.2304 89.5797 50.8423 88.825 50.8423C88.0704 50.8423 87.4584 50.2304 87.4584 49.4757C87.4584 48.721 88.0704 48.1091 88.825 48.1091Z" fill="#FF5BA8"/>
</g>
<defs>
<linearGradient id="paint0_linear" x1="-7.62897" y1="65.672" x2="128.532" y2="71.0704" gradientUnits="userSpaceOnUse">
<stop offset="0.0485" stop-color="#FFDBED"/>
<stop offset="0.9993" stop-color="#D2DEFF"/>
</linearGradient>
<clipPath id="clip0">
<rect width="125.17" height="125.17" fill="white"/>
</clipPath>
</defs>
</svg>
